PathFileType	4	(X/Y/Z)	/Users/visionmauri/Downloads/Videos/OAW01-top_Sports2D/OAW01-top_Sports2D_px_person00.trc
DataRate	CameraRate	NumFrames	NumMarkers	Units	OrigDataRate	OrigDataStartFrame	OrigNumFrames
26.0	26.0	13	22	m	26.0	254	2035
Frame#	Time	Hip			RHip			RKnee			RAnkle			RBigToe			RSmallToe			RHeel			LHip			LKnee			LAnkle			LBigToe			LSmallToe			LHeel			Neck			Head			Nose			RShoulder			RElbow			RWrist			LShoulder			LElbow			LWrist			
		X1	Y1	Z1	X2	Y2	Z2	X3	Y3	Z3	X4	Y4	Z4	X5	Y5	Z5	X6	Y6	Z6	X7	Y7	Z7	X8	Y8	Z8	X9	Y9	Z9	X10	Y10	Z10	X11	Y11	Z11	X12	Y12	Z12	X13	Y13	Z13	X14	Y14	Z14	X15	Y15	Z15	X16	Y16	Z16	X17	Y17	Z17	X18	Y18	Z18	X19	Y19	Z19	X20	Y20	Z20	X21	Y21	Z21	X22	Y22	Z22
254	9.774033734210727	499.8951755899308	459.50181206919893	0.0	489.04413942530783	460.03167235213505	0.0	490.06317033362484	509.85127795056735	0.0	490.84695350760967	555.594967723471	0.0	494.03307016064264	570.3961427386315	0.0	487.84943942003366	569.1162023882844	0.0	489.56049271780915	562.1070414753011	0.0	511.14012265292877	460.77538897757705	0.0	508.56280398269803	508.60799989467415	0.0	507.09486182168916	544.7816416733907	0.0	500.21993470591843	561.8139137733173	0.0	507.1832816730951	560.852686026876	0.0	507.6417989162727	548.9828879432335	0.0	503.42840892221926	391.49001396729096	0.0	506.6993297849413	358.08614909843857	0.0	505.65721832724665	383.2059829138597	0.0	482.30482252490896	395.5262486402731	0.0	473.3848554062093	432.4899431439517	0.0	470.2497971635097	463.49432646472076	0.0	524.7078167774757	397.813913683581	0.0	528.9064575099286	434.6635179187409	0.0	529.1288624253493	465.647147611719	0.0
255	9.81251418198321	499.63767769282117	459.10675758941954	0.0	488.8262871609891	460.4263693498018	0.0	489.9142959031211	510.04307676296486	0.0	490.80514162757095	555.3246756367138	0.0	494.06079915178555	570.2758907013048	0.0	487.75167539695383	569.0545048304164	0.0	489.58366889124187	562.0492983127591	0.0	511.0650023739149	460.46904396704565	0.0	509.0012249923718	508.75337121849407	0.0	507.59483430836275	545.2413393669405	0.0	502.2248826420476	562.4377561484041	0.0	508.79651278201413	561.556306348843	0.0	507.8003286764133	549.6281292119374	0.0	503.7548886764728	391.21766339891116	0.0	506.8895313954135	359.4086986643631	0.0	505.79579880244484	385.8855645547712	0.0	482.4879199510474	395.24833090174116	0.0	473.1467277323244	432.66081127825186	0.0	470.1848105948034	463.9501976177369	0.0	524.7353078180478	397.51303596698364	0.0	528.4565590132667	434.4639984219287	0.0	528.929470022166	465.78499789100715	0.0
256	9.850994629755693	499.8716394339403	458.49059578997844	0.0	489.0066435530483	459.9449267063628	0.0	490.02024552258473	510.2790301749593	0.0	490.79592301190183	555.3054584944514	0.0	494.33618134553757	570.1707251585451	0.0	487.44811009695064	569.05271139384	0.0	489.97652123781904	562.0115391765052	0.0	511.30461496300273	459.27151322851967	0.0	509.77322289522493	508.9746087835538	0.0	508.640516769235	546.7274510118675	0.0	504.6506017551623	564.079872685791	0.0	511.3062443394376	562.9877240770059	0.0	508.31931810487544	550.9520001924877	0.0	504.2702434720009	392.7093415894703	0.0	508.1285235207557	362.2481317557393	0.0	507.20460951255484	390.6255896314348	0.0	482.9040093087099	395.35997959558966	0.0	473.13906231278315	433.064868984961	0.0	470.19026827719523	464.25606192535656	0.0	524.7752514493662	397.83082112488427	0.0	527.9506697409716	434.72934341602416	0.0	528.8631113395498	466.6451202110245	0.0
257	9.889475077528177	500.35945486252103	457.97314230059203	0.0	489.2382463606978	459.3545394554647	0.0	490.01097879906956	510.42966373371684	0.0	490.71166434650456	555.7481349851947	0.0	494.2268458807878	570.146074573667	0.0	487.3854355067739	569.1330186171616	0.0	490.46098880334614	561.9939409207878	0.0	511.84778225717554	457.9303306524669	0.0	510.5963724261646	508.5388832259133	0.0	509.40245789172087	549.3668859613339	0.0	506.308109100762	566.1967446013618	0.0	513.2497688208022	564.9304226462018	0.0	508.66478758399904	554.2031715214772	0.0	504.58809095165475	393.93883204862664	0.0	509.6501267480969	364.27882325022887	0.0	508.7354229564753	391.77768150667555	0.0	483.22199456079073	396.02398875175317	0.0	473.15297347783365	433.8827983572327	0.0	470.31969790293397	464.68579114967383	0.0	524.952718184101	398.53783798672816	0.0	527.5980631459422	435.22023381912	0.0	527.999644487851	466.6125932246292	0.0
258	9.927955525300659	500.8757112869424	458.0156414108392	0.0	489.5063114230698	459.3416554745199	0.0	489.9299676865033	510.76115838227986	0.0	490.53124360389575	556.4079863901022	0.0	493.7026849406884	570.1174657266552	0.0	487.21966205591565	569.1642808393736	0.0	490.73522117006803	562.1191089585554	0.0	512.3501073724557	457.8248112290737	0.0	511.5044771628581	508.3605632556561	0.0	509.991824806072	552.6490201677441	0.0	507.24906728895246	568.5344875632679	0.0	514.4982143053194	567.2542064127412	0.0	509.0376125928227	558.3796244707008	0.0	504.57338065692886	393.8493666031806	0.0	509.70369101527575	363.67931612028474	0.0	508.7738414359937	388.4543986382045	0.0	483.3482507842116	396.94068870074346	0.0	473.21436788392094	434.73009800087397	0.0	470.7526489793532	465.2009310672955	0.0	525.2321121970773	398.9698650999965	0.0	527.5259710953372	435.3080470277466	0.0	526.3234428098016	464.6613955247673	0.0
259	9.966435973073143	501.3317996867627	458.7850851876735	0.0	490.104787505293	460.1689458571237	0.0	489.9851311331564	511.56293130174856	0.0	490.433177098295	556.9253634875279	0.0	493.35079927507843	570.1035619843839	0.0	486.6613111319375	569.1219670676983	0.0	490.89681364574403	562.4256489277118	0.0	512.7205830122551	459.0323431190134	0.0	512.5150175934936	509.66336287517345	0.0	511.0589021862025	556.193606924377	0.0	508.341780797867	571.082046835174	0.0	515.8518846312052	569.7968382272827	0.0	509.88279533190087	562.218314625592	0.0	504.65738905010505	393.46518473730583	0.0	508.6462934041837	363.51338615067647	0.0	508.0779188251468	386.577845354363	0.0	483.5405267143545	397.91872299976075	0.0	473.57219994691286	435.24078643247117	0.0	471.51652457840765	465.6442368843465	0.0	525.5523066286709	399.3602749583412	0.0	527.6302658338756	435.0984827702379	0.0	524.9133846335297	463.0061479764287	0.0
260	10.004916420845626	501.7605951687828	459.6863149006642	0.0	490.7846466281898	461.26465707843516	0.0	490.1858293519235	512.6229144980036	0.0	490.54396705717	557.1489798829133	0.0	493.1665527889451	570.1658493368051	0.0	486.22839249139093	569.0943293348853	0.0	491.12334648852914	562.7326973012151	0.0	513.3163654683908	460.37589038536714	0.0	513.5170585943024	511.6789435234231	0.0	512.6835690368607	559.6396940350893	0.0	510.06839321479265	573.337180672132	0.0	517.7282738498077	572.0389069877361	0.0	511.2079560491275	565.2582561622527	0.0	505.08298020145736	393.44349029589506	0.0	508.1702085753156	364.73487080726346	0.0	508.08355525853926	387.2225485226658	0.0	483.8249421401463	398.9078347411894	0.0	474.3127209800256	435.66970577090626	0.0	472.4834649732183	466.24921169487413	0.0	525.9516069985857	400.19769731602	0.0	527.661085766081	435.05341302709434	0.0	524.3122701662547	462.5910712147508	0.0
261	10.043396868618109	502.2278193555448	460.2463398251623	0.0	491.0846649273128	462.2051430112004	0.0	490.39274217524394	513.3906333759145	0.0	490.7665048619581	557.116412514939	0.0	492.72888713856537	570.2231241165687	0.0	486.28714872654757	569.0495160730892	0.0	491.36283431746915	562.9081057200921	0.0	514.0900953802768	461.47314520269856	0.0	514.3246029985875	512.8420003072841	0.0	514.4557783122322	562.0915399510382	0.0	512.174940424021	574.8550783407409	0.0	519.7835117886146	573.575737223474	0.0	512.8365144930402	567.1282763977168	0.0	505.5192478727609	393.4396169243873	0.0	508.440781735686	363.57109979484096	0.0	508.21262455961727	385.3739316609726	0.0	484.0495049163968	399.6996055001514	0.0	475.1551138214941	436.35495657910946	0.0	473.4859107258837	467.10769875367424	0.0	526.5739238063214	401.1272026711965	0.0	527.5565536938823	435.26550184621294	0.0	523.9722740351244	461.39100328071424	0.0
262	10.081877316390592	502.9718456109602	460.866127764406	0.0	491.4300018982138	463.35917952094314	0.0	490.7631577490096	513.5630199055121	0.0	490.94017331356923	557.0163935366744	0.0	492.4008837246045	570.2361426975548	0.0	486.5573655837751	568.9881258692623	0.0	491.4775614091385	562.9955639579271	0.0	514.7159114861695	462.6484522090162	0.0	514.9675660288218	512.9906772733658	0.0	515.9807610056171	562.8805648446777	0.0	514.1160054349184	575.9668553484117	0.0	521.52717324239	574.6571598750885	0.0	514.4760696594025	568.0742709671044	0.0	505.89465124705737	393.3100400242364	0.0	508.7532602007304	360.46355445294137	0.0	507.84413205149366	381.80819987506806	0.0	484.46272133217053	400.3032837600406	0.0	475.9982220769323	437.1131372922178	0.0	474.5200150023608	467.7088378650639	0.0	527.4151967316807	401.6855532748918	0.0	527.7067526839616	435.52237805802446	0.0	523.8524332118575	459.3655919661966	0.0
263	10.120357764163074	504.2175142331096	461.7372804314141	0.0	492.538184838207	464.5179474065844	0.0	491.5425810284087	513.5690906540391	0.0	491.023842486742	556.9766571543956	0.0	492.8304570023639	570.2625666869744	0.0	486.692970972203	568.9931460017087	0.0	491.46665959028206	563.0449597037476	0.0	515.458659221646	463.52024368878426	0.0	515.6400766217272	513.2347125464792	0.0	517.0722886349621	562.9398178723935	0.0	515.3517350618197	577.2092040511894	0.0	522.741755993566	575.7840328784763	0.0	515.8011497282704	569.0745925752639	0.0	506.68169585534486	393.34401069168223	0.0	509.52103795801537	360.31162820632926	0.0	508.25516971518863	382.4199122003501	0.0	485.4272043222489	400.98094824171875	0.0	477.0790518504094	437.55174275318	0.0	475.7339638729911	467.70648922734404	0.0	528.2952470515954	402.1566308205866	0.0	528.5965181047327	435.65574833504314	0.0	524.8717688927961	458.556006241586	0.0
264	10.158838211935558	505.649097582963	462.3983504597125	0.0	494.01095128232333	464.84480540121217	0.0	492.5574229839847	513.9712674475134	0.0	491.11757183744186	556.884690779702	0.0	493.68641898461937	570.2323303791807	0.0	486.62685375761413	569.0413423641887	0.0	491.45042632323674	562.9302155045021	0.0	516.661203170429	463.66134598682515	0.0	516.3611674564851	514.0660883795781	0.0	517.7213158441494	563.7811169407582	0.0	515.7347524148587	578.438258073677	0.0	523.3691656602501	576.9647159305575	0.0	516.6360983573389	570.4305821961693	0.0	507.95322356917933	393.92951013589726	0.0	511.4053477459437	364.134626516708	0.0	510.3975331679789	387.3056474083604	0.0	486.7597269377802	401.77805810417345	0.0	478.23496273918363	437.75536914949583	0.0	477.05136158595224	467.62210039617145	0.0	529.1993803194047	403.0367238655763	0.0	530.0571283218186	435.6566588534124	0.0	526.8137521074757	458.91406569394263	0.0
265	10.197318659708042	506.6920833919989	462.62102563528634	0.0	494.94132222220344	464.46424995372456	0.0	493.53026370941103	514.7305678996288	0.0	491.3132078989097	556.534399820997	0.0	494.2527878471952	570.0327031224866	0.0	486.5948832130227	569.0261381292927	0.0	491.57667527829295	562.3675924740708	0.0	518.0272025391083	463.49786174376095	0.0	517.0550442001868	514.7628720546136	0.0	518.0182423646697	565.4536292473887	0.0	515.6831522376132	579.2765235160394	0.0	523.571671543548	577.8913534962876	0.0	516.8835566445133	571.5292852465477	0.0	509.2056979872075	395.0200002319937	0.0	513.4020899491933	367.2580105370421	0.0	512.859695688863	390.19882979209723	0.0	487.93369928310955	402.3577271674493	0.0	479.027123701768	437.9990799574052	0.0	478.09377610789727	468.0150439769906	0.0	530.2301550915696	403.99415233115275	0.0	531.4467549533208	435.68549511870987	0.0	528.300030755564	458.957756410281	0.0
266	10.235799107480524	507.50205929183295	462.62876012787973	0.0	495.64091695711363	464.35329280397696	0.0	494.57461409687727	515.6747252240517	0.0	491.5582238996547	555.9344498470899	0.0	494.4634422734088	569.8987770934366	0.0	486.8874640604327	568.9259111888126	0.0	491.78322009761985	561.2063142901139	0.0	519.2077405462595	463.5164125238983	0.0	517.7389016991086	514.8926306858374	0.0	518.1271178386253	566.9342363531891	0.0	515.5692574083835	579.9805527003895	0.0	523.5782399793937	578.6947339493454	0.0	516.7409042164745	572.3056489704982	0.0	510.2703530462264	395.81213739342644	0.0	514.1348748593899	366.3811292273354	0.0	513.9786791830593	388.6569962102573	0.0	488.82213168919054	402.32417037489483	0.0	479.75637651499943	438.14650971134404	0.0	478.64312648338046	468.4512937939948	0.0	531.4344993194788	404.21073466704036	0.0	532.7032790947663	436.0525630547782	0.0	529.3992399824135	459.19187784030487	0.0
